<svg width="0" height="0" class="hidden">
  <symbol version="1.1" id="book-svgrepo-com" xmlns="http://www.w3.org/2000/svg" xmlns:xlink="http://www.w3.org/1999/xlink" x="0px" y="0px" xml:space="preserve" viewBox="0 0 512 512">
    <g>
      <g>
        <g>
          <rect x="132.083" y="55.882" width="15.694" height="312.191"></rect>
          <path d="M427.949,0h-288.02c-30.81,0-55.877,25.067-55.877,55.877v400.246c0,30.811,25.066,55.877,55.877,55.877h288.02v-87.897
				h-15.694v72.202H139.928c-22.156,0-40.183-18.025-40.183-40.183s18.026-40.183,40.183-40.183h288.02V0z M412.254,400.246H147.776
				v-16.167h-15.694v16.732c-12.611,1.781-23.887,7.773-32.336,16.522V55.877c0-19.471,13.923-35.747,32.336-39.407v23.397h15.694
				V15.694h264.479V400.246z"></path>
          <path d="M139.928,439.956v-15.694c-17.569,0-31.862,14.293-31.862,31.862c0,17.568,14.293,31.862,31.862,31.862V472.29
				c-8.915,0-16.167-7.253-16.167-16.167S131.014,439.956,139.928,439.956z"></path>
          <rect x="148.092" y="424.102" width="15.694" height="64.043"></rect>
          <rect x="171.947" y="424.259" width="232.14" height="15.694"></rect>
          <rect x="171.947" y="448.272" width="232.14" height="15.694"></rect>
          <rect x="171.947" y="472.294" width="232.14" height="15.694"></rect>
          <rect x="235.99" y="360.227" width="88.056" height="15.694"></rect>
          <path d="M371.913,40.025H188.116v143.774h183.797V40.025z M356.219,168.104H203.811V55.719h152.409V168.104z"></path>
          <rect x="219.982" y="72.044" width="120.072" height="15.694"></rect>
          <rect x="219.982" y="104.064" width="88.056" height="15.694"></rect>
          <rect x="219.982" y="136.08" width="72.044" height="15.694"></rect>
        </g>
      </g>
    </g>
    <g></g>
    <g></g>
    <g></g>
    <g></g>
    <g></g>
    <g></g>
    <g></g>
    <g></g>
    <g></g>
    <g></g>
    <g></g>
    <g></g>
    <g></g>
    <g></g>
    <g></g>
  </symbol>
  <symbol version="1.1" id="articles-journal-svgrepo-com" xmlns="http://www.w3.org/2000/svg" xmlns:xlink="http://www.w3.org/1999/xlink" x="0px" y="0px" xml:space="preserve" viewBox="0 0 506 506">
    <g>
      <path d="M373,456h37.6c3.6,0,3.2-6,3.2-9.6V47.6c0-3.6,0.4-3.6-3.2-3.6H103.4c-3.6,0-9.6,0-9.6,3.6v33.6
		L373,456z"></path>
      <path d="M419,420h35.6c3.6,0,3.2-10,3.2-13.6V11.6c0-3.6,0.4-7.6-3.2-7.6H147.4c-3.6,0-9.6,4-9.6,7.6V44
		L419,420z"></path>
    </g>
    <path d="M369.8,493.6c0,3.6-2.8,6.4-6.4,6.4H56.6c-3.6,0-6.4-2.8-6.4-6.4V90.4c0-3.6,2.8-6.4,6.4-6.4h306.8
	c3.6,0,6.4,2.8,6.4,6.4V493.6z"></path>
    <rect x="81.8" y="124" width="256" height="80"></rect>
    <rect x="85.8" y="364" width="96" height="96"></rect>
    <path d="M257.8,242h-176c-2.4,0-4-1.6-4-4s1.6-4,4-4h176c2.4,0,4,1.6,4,4S260.2,242,257.8,242z"></path>
    <path d="M257.8,274h-176c-2.4,0-4-1.6-4-4s1.6-4,4-4h176c2.4,0,4,1.6,4,4S260.2,274,257.8,274z"></path>
    <path d="M257.8,306h-176c-2.4,0-4-1.6-4-4s1.6-4,4-4h176c2.4,0,4,1.6,4,4S260.2,306,257.8,306z"></path>
    <path d="M257.8,338h-176c-2.4,0-4-1.6-4-4s1.6-4,4-4h176c2.4,0,4,1.6,4,4S260.2,338,257.8,338z"></path>
    <path d="M337.8,370h-120c-2.4,0-4-1.6-4-4s1.6-4,4-4h120c2.4,0,4,1.6,4,4S340.2,370,337.8,370z"></path>
    <path d="M337.8,402h-120c-2.4,0-4-1.6-4-4s1.6-4,4-4h120c2.4,0,4,1.6,4,4S340.2,402,337.8,402z"></path>
    <path d="M337.8,434h-120c-2.4,0-4-1.6-4-4s1.6-4,4-4h120c2.4,0,4,1.6,4,4S340.2,434,337.8,434z"></path>
    <path d="M337.8,466h-120c-2.4,0-4-1.6-4-4s1.6-4,4-4h120c2.4,0,4,1.6,4,4S340.2,466,337.8,466z"></path>
    <path d="M337.8,242h-52c-2.4,0-4-1.6-4-4s1.6-4,4-4h52c2.4,0,4,1.6,4,4S340.2,242,337.8,242z"></path>
    <path d="M337.8,274h-52c-2.4,0-4-1.6-4-4s1.6-4,4-4h52c2.4,0,4,1.6,4,4S340.2,274,337.8,274z"></path>
    <path d="M337.8,306h-52c-2.4,0-4-1.6-4-4s1.6-4,4-4h52c2.4,0,4,1.6,4,4S340.2,306,337.8,306z"></path>
    <path d="M337.8,338h-52c-2.4,0-4-1.6-4-4s1.6-4,4-4h52c2.4,0,4,1.6,4,4S340.2,338,337.8,338z"></path>
    <path d="M361.4,506H54.6c-6,0-10.4-4.8-10.4-10.4V92.4c0-6,4.8-10.4,10.4-10.4h306.8c6,0,10.4,4.8,10.4,10.4v402.8
	C371.8,501.2,367,506,361.4,506z M54.2,90c-1.2,0-2.4,1.2-2.4,2.4v402.8c0,1.2,1.2,2.4,2.4,2.4H361c1.2,0,2.4-1.2,2.4-2.4V92.4
	c0-1.2-1.2-2.4-2.4-2.4H54.2z"></path>
    <path d="M335.8,210h-256c-2.4,0-4-1.6-4-4v-80c0-2.4,1.6-4,4-4h256c2.4,0,4,1.6,4,4v80C339.8,208.4,338.2,210,335.8,210z M83.8,202
	h248v-72h-248V202z"></path>
    <path d="M179.8,466h-96c-2.4,0-4-1.6-4-4v-96c0-2.4,1.6-4,4-4h96c2.4,0,4,1.6,4,4v96C183.8,464.4,182.2,466,179.8,466z M87.8,458h88
	v-88h-88V458z"></path>
    <path d="M407.4,462h-37.6c-2.4,0-4-1.6-4-4s1.6-4,4-4h37.6c1.2,0,2.4-1.2,2.4-2.4V48.4c0-1.2-1.2-2.4-2.4-2.4H100.6
	c-1.2,0-2.4,1.2-2.4,2.4V84c0,2.4-1.6,4-4,4s-4-1.6-4-4V48.4c0-6,4.8-10.4,10.4-10.4h306.8c6,0,10.4,4.8,10.4,10.4v402.8
	C417.8,457.2,413,462,407.4,462z"></path>
    <path d="M451.4,424h-37.6c-2.4,0-4-1.6-4-4s1.6-4,4-4h37.6c1.2,0,2.4-1.2,2.4-2.4V10.4c0-1.2-1.2-2.4-2.4-2.4H144.6
	c-1.2,0-2.4,1.2-2.4,2.4V38c0,2.4-1.6,4-4,4s-4-1.6-4-4V10.4c0-6,4.8-10.4,10.4-10.4h306.8c6,0,10.4,4.8,10.4,10.4v402.8
	C461.8,419.2,457,424,451.4,424z"></path>
    <g></g>
    <g></g>
    <g></g>
    <g></g>
    <g></g>
    <g></g>
    <g></g>
    <g></g>
    <g></g>
    <g></g>
    <g></g>
    <g></g>
    <g></g>
    <g></g>
    <g></g>
  </symbol>

   <symbol version="1.1" id="star-svgrepo-com" xmlns="http://www.w3.org/2000/svg" xmlns:xlink="http://www.w3.org/1999/xlink" x="0px" y="0px" xml:space="preserve" viewBox="0 0 157.293 157.293">
    <g>
      <g>
        <g>
          <path d="M78.105,0.423c0.019,8.001,0.222,15.998,0.197,24c-0.004,1.159,1.801,1.159,1.797,0
				c-0.027-8.057-0.013-16.123-1.15-24.114C78.879-0.181,78.104-0.048,78.105,0.423L78.105,0.423z"></path>
        </g>
        <g>
          <path d="M78.105,132.423c0.019,8.001,0.222,15.998,0.197,24c-0.004,1.159,1.801,1.159,1.797,0
				c-0.027-8.057-0.013-16.122-1.15-24.114C78.879,131.819,78.104,131.952,78.105,132.423L78.105,132.423z"></path>
        </g>
        <g>
          <path d="M156.867,77.661c-8,0.019-15.998,0.222-24,0.197c-1.159-0.003-1.159,1.801,0,1.797c8.057-0.027,16.123-0.013,24.114-1.15
				C157.471,78.435,157.339,77.66,156.867,77.661L156.867,77.661z"></path>
        </g>
        <g>
          <path d="M24.87,77.662c-8,0.019-15.997,0.222-23.999,0.197c-1.159-0.003-1.159,1.801,0,1.797
				c8.056-0.027,16.122-0.013,24.113-1.15C25.474,78.436,25.342,77.661,24.87,77.662L24.87,77.662z"></path>
        </g>
      </g>
      <g>
        <g>
          <path d="M133.484,22.729c-5.638,5.677-11.155,11.469-16.832,17.11c-0.822,0.817,0.454,2.093,1.271,1.271
				c5.674-5.713,11.398-11.402,16.235-17.86C134.457,22.85,133.819,22.391,133.484,22.729L133.484,22.729z"></path>
        </g>
        <g>
          <path d="M40.146,116.067c-5.638,5.677-11.155,11.469-16.832,17.11c-0.822,0.817,0.454,2.093,1.271,1.27
				c5.674-5.713,11.398-11.402,16.235-17.86C41.119,116.189,40.481,115.73,40.146,116.067L40.146,116.067z"></path>
        </g>
        <g>
          <path d="M134.562,133.037c-5.677-5.637-11.47-11.155-17.109-16.831c-0.817-0.823-2.094,0.453-1.271,1.271
				c5.713,5.675,11.402,11.399,17.86,16.235C134.44,134.01,134.9,133.372,134.562,133.037L134.562,133.037z"></path>
        </g>
        <g>
          <path d="M41.225,39.702c-5.677-5.637-11.469-11.154-17.108-16.831c-0.817-0.823-2.094,0.453-1.271,1.271
				c5.712,5.675,11.401,11.399,17.859,16.235C41.103,40.675,41.563,40.037,41.225,39.702L41.225,39.702z"></path>
        </g>
      </g>
      <g>
        <g>
          <path d="M150.898,48.351c-7.387,3.026-14.704,6.213-22.111,9.195c-1.063,0.428-0.592,2.171,0.479,1.732
				c7.465-3.061,14.979-6.07,21.964-10.142C151.638,48.898,151.359,48.162,150.898,48.351L150.898,48.351z"></path>
        </g>
        <g>
          <path d="M28.597,98.017c-7.387,3.026-14.704,6.214-22.111,9.195c-1.062,0.428-0.592,2.171,0.479,1.732
				c7.466-3.061,14.979-6.069,21.964-10.142C29.337,98.564,29.058,97.828,28.597,98.017L28.597,98.017z"></path>
        </g>
        <g>
          <path d="M108.939,150.45c-3.026-7.386-6.214-14.704-9.195-22.11c-0.428-1.063-2.171-0.592-1.732,0.478
				c3.061,7.466,6.069,14.98,10.143,21.964C108.392,151.191,109.128,150.911,108.939,150.45L108.939,150.45z"></path>
        </g>
        <g>
          <path d="M59.274,28.153c-3.026-7.386-6.214-14.702-9.194-22.109c-0.428-1.063-2.171-0.592-1.732,0.478
				c3.06,7.466,6.068,14.979,10.142,21.962C58.727,28.893,59.463,28.614,59.274,28.153L59.274,28.153z"></path>
        </g>
      </g>
      <g>
        <g>
          <path d="M107.227,5.808c-2.968,7.449-5.771,14.961-8.783,22.393c-0.435,1.072,1.309,1.543,1.732,0.478
				c2.957-7.431,5.975-14.858,7.879-22.642C108.19,5.486,107.427,5.305,107.227,5.808L107.227,5.808z"></path>
        </g>
        <g>
          <path d="M58.01,128.29c-2.968,7.449-5.77,14.961-8.783,22.394c-0.435,1.072,1.309,1.543,1.732,0.478
				c2.957-7.431,5.975-14.859,7.879-22.643C58.973,127.968,58.21,127.787,58.01,128.29L58.01,128.29z"></path>
        </g>
        <g>
          <path d="M151.481,106.781c-7.449-2.966-14.961-5.768-22.393-8.782c-1.072-0.435-1.543,1.309-0.479,1.732
				c7.432,2.957,14.858,5.975,22.643,7.878C151.803,107.745,151.985,106.982,151.481,106.781L151.481,106.781z"></path>
        </g>
        <g>
          <path d="M29.001,57.566c-7.448-2.966-14.96-5.768-22.391-8.782c-1.072-0.435-1.543,1.309-0.479,1.732
				c7.431,2.958,14.858,5.975,22.641,7.878C29.323,58.529,29.505,57.767,29.001,57.566L29.001,57.566z"></path>
        </g>
      </g>
      <g>
        <g>
          <path d="M90.023,17.905c-1.311,6.155-2.341,12.374-3.576,18.546c-0.227,1.133,1.516,1.613,1.732,0.478
				c1.198-6.254,2.478-12.529,2.688-18.91C90.882,17.538,90.124,17.428,90.023,17.905L90.023,17.905z"></path>
        </g>
        <g>
          <path d="M70.01,120.042c-1.312,6.155-2.342,12.374-3.577,18.546c-0.226,1.133,1.515,1.613,1.732,0.478
				c1.198-6.254,2.478-12.529,2.688-18.91C70.869,119.675,70.111,119.566,70.01,120.042L70.01,120.042z"></path>
        </g>
        <g>
          <path d="M139.387,89.577c-6.156-1.31-12.374-2.34-18.547-3.575c-1.134-0.227-1.613,1.515-0.478,1.732
				c6.255,1.198,12.53,2.477,18.911,2.687C139.754,90.437,139.863,89.678,139.387,89.577L139.387,89.577z"></path>
        </g>
        <g>
          <path d="M37.251,69.565c-6.155-1.31-12.373-2.34-18.545-3.575c-1.134-0.227-1.613,1.515-0.479,1.732
				c6.254,1.198,12.528,2.477,18.909,2.687C37.618,70.425,37.728,69.667,37.251,69.565L37.251,69.565z"></path>
        </g>
      </g>
      <g>
        <g>
          <path d="M129.545,43.519c-5.279,3.431-10.409,7.097-15.648,10.589c-0.961,0.64-0.054,2.203,0.906,1.552
				c5.266-3.573,10.608-7.103,15.263-11.466C130.42,43.862,129.956,43.252,129.545,43.519L129.545,43.519z"></path>
        </g>
        <g>
          <path d="M43.172,101.59c-5.279,3.43-10.409,7.096-15.648,10.589c-0.961,0.64-0.054,2.203,0.906,1.552
				c5.266-3.573,10.608-7.103,15.263-11.466C44.047,101.933,43.583,101.323,43.172,101.59L43.172,101.59z"></path>
        </g>
        <g>
          <path d="M113.773,129.098c-3.432-5.278-7.097-10.408-10.59-15.648c-0.64-0.96-2.202-0.053-1.551,0.907
				c3.572,5.265,7.102,10.608,11.466,15.261C113.43,129.973,114.04,129.509,113.773,129.098L113.773,129.098z"></path>
        </g>
        <g>
          <path d="M55.701,42.726c-3.431-5.278-7.096-10.407-10.588-15.647c-0.64-0.961-2.202-0.053-1.551,0.907
				c3.571,5.265,7.101,10.607,11.464,15.26C55.359,43.601,55.969,43.137,55.701,42.726L55.701,42.726z"></path>
        </g>
      </g>
      <g>
        <g>
          <path d="M139.073,65.999c-6.22,1.107-12.393,2.496-18.6,3.679c-1.135,0.216-0.655,1.959,0.479,1.733
				c6.187-1.233,12.413-2.399,18.35-4.583C139.824,66.635,139.619,65.902,139.073,65.999L139.073,65.999z"></path>
        </g>
        <g>
          <path d="M36.911,85.886c-6.22,1.107-12.392,2.496-18.601,3.679c-1.135,0.216-0.655,1.958,0.479,1.733
				c6.188-1.232,12.414-2.399,18.351-4.583C37.662,86.523,37.457,85.789,36.911,85.886L36.911,85.886z"></path>
        </g>
        <g>
          <path d="M91.292,138.626c-1.107-6.219-2.497-12.392-3.68-18.599c-0.216-1.135-1.958-0.656-1.732,0.478
				c1.231,6.188,2.398,12.414,4.584,18.35C90.656,139.376,91.39,139.172,91.292,138.626L91.292,138.626z"></path>
        </g>
        <g>
          <path d="M71.405,36.466c-1.107-6.219-2.497-12.391-3.679-18.597c-0.216-1.135-1.958-0.656-1.733,0.478
				c1.231,6.187,2.399,12.413,4.583,18.348C70.77,37.216,71.503,37.012,71.405,36.466L71.405,36.466z"></path>
        </g>
      </g>
      <g>
        <g>
          <path d="M111.753,26.47c-3.518,5.241-6.806,10.64-10.264,15.923c-0.636,0.972,0.927,1.879,1.551,0.907
				c3.414-5.31,6.905-10.604,9.455-16.397C112.716,26.403,112.068,26.002,111.753,26.47L111.753,26.47z"></path>
        </g>
        <g>
          <path d="M55.1,113.78c-3.517,5.242-6.806,10.641-10.264,15.924c-0.637,0.972,0.926,1.879,1.551,0.907
				c3.414-5.31,6.905-10.604,9.455-16.397C56.063,113.714,55.414,113.312,55.1,113.78L55.1,113.78z"></path>
        </g>
        <g>
          <path d="M130.819,111.307c-5.241-3.517-10.64-6.806-15.923-10.265c-0.971-0.636-1.879,0.927-0.906,1.552
				c5.309,3.414,10.604,6.905,16.396,9.455C130.887,112.27,131.288,111.622,130.819,111.307L130.819,111.307z"></path>
        </g>
        <g>
          <path d="M43.511,54.656c-5.241-3.517-10.64-6.805-15.922-10.264c-0.971-0.636-1.878,0.927-0.906,1.552
				c5.308,3.415,10.603,6.905,16.395,9.455C43.578,55.619,43.98,54.971,43.511,54.656L43.511,54.656z"></path>
        </g>
      </g>
      <g>
        <g>
          <g>
            <path d="M96.79,34.569c-2.072,4.361-3.81,8.888-5.719,13.323c-0.516,1.198,1.142,1.89,1.642,0.692
					c1.867-4.467,3.832-8.937,4.862-13.685C97.674,34.445,97.009,34.108,96.79,34.569L96.79,34.569z"></path>
          </g>
          <g>
            <path d="M65.52,108.284c-2.073,4.361-3.811,8.887-5.72,13.323c-0.516,1.198,1.142,1.89,1.642,0.692
					c1.866-4.467,3.832-8.937,4.863-13.685C66.403,108.161,65.738,107.823,65.52,108.284L65.52,108.284z"></path>
          </g>
          <g>
            <path d="M122.724,96.344c-4.361-2.072-8.889-3.809-13.325-5.718c-1.197-0.516-1.89,1.142-0.692,1.642
					c4.468,1.867,8.938,3.831,13.686,4.862C122.847,97.228,123.184,96.563,122.724,96.344L122.724,96.344z"></path>
          </g>
          <g>
            <path d="M49.009,65.075c-4.361-2.072-8.887-3.81-13.323-5.719c-1.197-0.516-1.89,1.142-0.692,1.642
					c4.468,1.867,8.938,3.832,13.685,4.862C49.132,65.959,49.469,65.294,49.009,65.075L49.009,65.075z"></path>
          </g>
        </g>
        <g>
          <g>
            <path d="M122.547,60.086c-4.552,1.619-8.983,3.592-13.473,5.38c-1.066,0.425-0.59,2.171,0.479,1.732
					c4.547-1.867,9.177-3.659,13.325-6.327C123.272,60.618,123.025,59.917,122.547,60.086L122.547,60.086z"></path>
          </g>
          <g>
            <path d="M48.311,90.099c-4.552,1.618-8.983,3.591-13.472,5.379c-1.066,0.425-0.59,2.171,0.479,1.732
					c4.546-1.868,9.176-3.659,13.324-6.326C49.035,90.632,48.788,89.93,48.311,90.099L48.311,90.099z"></path>
          </g>
          <g>
            <path d="M97.205,122.1c-1.618-4.551-3.592-8.982-5.379-13.471c-0.425-1.067-2.171-0.59-1.732,0.478
					c1.866,4.547,3.658,9.177,6.326,13.324C96.673,122.824,97.375,122.577,97.205,122.1L97.205,122.1z"></path>
          </g>
          <g>
            <path d="M67.193,47.864c-1.618-4.55-3.591-8.981-5.378-13.47c-0.425-1.067-2.171-0.59-1.733,0.478
					c1.866,4.546,3.657,9.176,6.325,13.323C66.66,48.589,67.362,48.342,67.193,47.864L67.193,47.864z"></path>
          </g>
        </g>
        <g>
          <g>
            <path d="M126.184,78.522c-4.843-0.283-9.714-0.19-14.564-0.29c-1.158-0.024-1.158,1.786,0,1.797
					c4.901,0.048,9.832,0.175,14.679-0.663C126.8,79.279,126.643,78.549,126.184,78.522L126.184,78.522z"></path>
          </g>
          <g>
            <path d="M46.119,77.285c-4.843-0.283-9.714-0.19-14.564-0.29c-1.158-0.024-1.158,1.786,0,1.797
					c4.901,0.048,9.832,0.175,14.679-0.663C46.736,78.042,46.578,77.312,46.119,77.285L46.119,77.285z"></path>
          </g>
          <g>
            <path d="M78.77,125.735c0.282-4.842,0.188-9.713,0.29-14.563c0.024-1.159-1.785-1.158-1.797,0
					c-0.05,4.901-0.177,9.831,0.663,14.678C78.013,126.351,78.743,126.194,78.77,125.735L78.77,125.735z"></path>
          </g>
          <g>
            <path d="M80.008,45.673c0.281-4.842,0.188-9.712,0.289-14.562c0.024-1.159-1.785-1.158-1.797,0
					c-0.05,4.901-0.176,9.83,0.664,14.676C79.251,46.289,79.982,46.132,80.008,45.673L80.008,45.673z"></path>
          </g>
        </g>
        <g>
          <g>
            <path d="M111.809,44.448c-3.562,3.289-6.878,6.852-10.317,10.27c-0.822,0.817,0.457,2.097,1.271,1.271
					c3.437-3.49,6.965-6.949,9.721-11.02C112.768,44.549,112.154,44.129,111.809,44.448L111.809,44.448z"></path>
          </g>
          <g>
            <path d="M55.306,101.188c-3.561,3.29-6.877,6.853-10.317,10.27c-0.822,0.817,0.457,2.097,1.271,1.271
					c3.438-3.489,6.966-6.948,9.721-11.02C56.265,101.289,55.652,100.868,55.306,101.188L55.306,101.188z"></path>
          </g>
          <g>
            <path d="M112.842,111.362c-3.289-3.561-6.852-6.878-10.268-10.318c-0.817-0.823-2.097,0.457-1.271,1.27
					c3.489,3.438,6.947,6.967,11.019,9.722C112.741,112.321,113.161,111.708,112.842,111.362L112.842,111.362z"></path>
          </g>
          <g>
            <path d="M56.103,54.862c-3.289-3.561-6.851-6.877-10.267-10.317c-0.817-0.823-2.097,0.457-1.271,1.271
					c3.488,3.438,6.946,6.966,11.017,9.721C56.002,55.82,56.422,55.208,56.103,54.862L56.103,54.862z"></path>
          </g>
        </g>
      </g>
      <g>
        <g>
          <g>
            <path d="M83.914,65.36c-0.962,1.069-1.446,2.514-2.025,3.814c-0.531,1.192,1.157,1.897,1.642,0.692
					c0.535-1.329,1.225-2.741,1.117-4.203C84.622,65.318,84.184,65.06,83.914,65.36L83.914,65.36z"></path>
          </g>
          <g>
            <path d="M74.771,86.914c-0.962,1.069-1.446,2.514-2.025,3.815c-0.531,1.192,1.157,1.897,1.642,0.692
					c0.535-1.329,1.225-2.742,1.117-4.204C75.479,86.871,75.04,86.613,74.771,86.914L74.771,86.914z"></path>
          </g>
          <g>
            <path d="M91.932,83.468c-1.069-0.962-2.514-1.446-3.815-2.026c-1.191-0.531-1.896,1.157-0.692,1.642
					c1.329,0.535,2.742,1.225,4.204,1.117C91.975,84.175,92.232,83.737,91.932,83.468L91.932,83.468z"></path>
          </g>
          <g>
            <path d="M70.379,74.325c-1.07-0.961-2.514-1.446-3.815-2.026c-1.191-0.531-1.896,1.157-0.692,1.642
					c1.329,0.536,2.742,1.226,4.204,1.118C70.422,75.033,70.68,74.595,70.379,74.325L70.379,74.325z"></path>
          </g>
        </g>
        <g>
          <g>
            <path d="M91.674,72.753c-1.44,0.077-2.809,0.757-4.142,1.269c-1.213,0.465-0.507,2.153,0.692,1.642
					c1.316-0.56,2.798-1.069,3.754-2.177C92.205,73.223,92.076,72.732,91.674,72.753L91.674,72.753z"></path>
          </g>
          <g>
            <path d="M69.968,81.529c-1.44,0.076-2.808,0.757-4.142,1.268c-1.213,0.465-0.507,2.153,0.692,1.642
					c1.315-0.56,2.797-1.069,3.753-2.177C70.499,81.999,70.37,81.508,69.968,81.529L69.968,81.529z"></path>
          </g>
          <g>
            <path d="M84.539,91.227c-0.077-1.44-0.758-2.808-1.269-4.141c-0.465-1.214-2.152-0.507-1.642,0.692
					c0.56,1.315,1.068,2.797,2.177,3.753C84.069,91.758,84.561,91.63,84.539,91.227L84.539,91.227z"></path>
          </g>
          <g>
            <path d="M75.764,69.522c-0.077-1.44-0.757-2.808-1.269-4.141c-0.466-1.213-2.153-0.507-1.642,0.692
					c0.56,1.315,1.068,2.797,2.177,3.752C75.293,70.052,75.785,69.924,75.764,69.522L75.764,69.522z"></path>
          </g>
        </g>
        <g>
          <g>
            <path d="M92.818,78.163c-1.365-0.492-2.938-0.383-4.372-0.432c-1.157-0.039-1.16,1.8,0,1.797
					c1.489-0.004,3.108,0.097,4.475-0.58C93.281,78.77,93.138,78.279,92.818,78.163L92.818,78.163z"></path>
          </g>
          <g>
            <path d="M69.407,77.801c-1.365-0.492-2.938-0.383-4.372-0.432c-1.157-0.039-1.16,1.8,0,1.797
					c1.489-0.004,3.108,0.097,4.475-0.58C69.871,78.408,69.728,77.917,69.407,77.801L69.407,77.801z"></path>
          </g>
          <g>
            <path d="M79.129,92.371c0.492-1.365,0.383-2.938,0.432-4.373c0.039-1.157-1.8-1.16-1.797,0c0.004,1.489-0.097,3.109,0.58,4.475
					C78.523,92.835,79.014,92.692,79.129,92.371L79.129,92.371z"></path>
          </g>
          <g>
            <path d="M79.49,68.962c0.492-1.365,0.384-2.938,0.432-4.372c0.039-1.157-1.801-1.16-1.797,0c0.005,1.489-0.097,3.109,0.58,4.475
					C78.884,69.425,79.375,69.282,79.49,68.962L79.49,68.962z"></path>
          </g>
        </g>
        <g>
          <g>
            <path d="M88.372,68.207c-1.298,0.64-2.31,1.84-3.338,2.836c-0.833,0.808,0.469,2.108,1.271,1.271
					c1.027-1.072,2.239-2.169,2.697-3.621C89.125,68.307,88.691,68.05,88.372,68.207L88.372,68.207z"></path>
          </g>
          <g>
            <path d="M71.852,84.797c-1.299,0.64-2.31,1.84-3.339,2.835c-0.833,0.807,0.468,2.107,1.271,1.271
					c1.028-1.071,2.239-2.169,2.698-3.621C72.605,84.898,72.17,84.64,71.852,84.797L71.852,84.797z"></path>
          </g>
          <g>
            <path d="M89.085,87.926c-0.641-1.298-1.84-2.31-2.835-3.338c-0.808-0.833-2.107,0.467-1.271,1.271
					c1.072,1.029,2.169,2.241,3.621,2.699C88.985,88.679,89.242,88.245,89.085,87.926L89.085,87.926z"></path>
          </g>
          <g>
            <path d="M72.495,71.406c-0.641-1.298-1.84-2.309-2.835-3.338c-0.808-0.834-2.107,0.467-1.271,1.271
					c1.072,1.029,2.169,2.24,3.621,2.699C72.395,72.159,72.652,71.725,72.495,71.406L72.495,71.406z"></path>
          </g>
        </g>
      </g>
    </g>
    <g></g>
    <g></g>
    <g></g>
    <g></g>
    <g></g>
    <g></g>
    <g></g>
    <g></g>
    <g></g>
    <g></g>
    <g></g>
    <g></g>
    <g></g>
    <g></g>
    <g></g>
  </symbol>

    <symbol version="1.1" id="check-svgrepo-com" xmlns="http://www.w3.org/2000/svg" xmlns:xlink="http://www.w3.org/1999/xlink" x="0px" y="0px" xml:space="preserve" viewBox="0 0 405.272 405.272">
    <g>
      <path d="M393.401,124.425L179.603,338.208c-15.832,15.835-41.514,15.835-57.361,0L11.878,227.836
		c-15.838-15.835-15.838-41.52,0-57.358c15.841-15.841,41.521-15.841,57.355-0.006l81.698,81.699L336.037,67.064
		c15.841-15.841,41.523-15.829,57.358,0C409.23,82.902,409.23,108.578,393.401,124.425z"></path>
    </g>
    <g></g>
    <g></g>
    <g></g>
    <g></g>
    <g></g>
    <g></g>
    <g></g>
    <g></g>
    <g></g>
    <g></g>
    <g></g>
    <g></g>
    <g></g>
    <g></g>
    <g></g>
  </symbol>
  
</svg>